<svg xmlns="http://www.w3.org/2000/svg" xmlns:xlink="http://www.w3.org/1999/xlink" width="580" height="360.52"><rect width="580" height="360.52" rx="5" ry="5" class="a"/><svg y="0%" x="0%"><circle cx="20" cy="20" r="6" fill="#ff5f58"/><circle cx="40" cy="20" r="6" fill="#ffbd2e"/><circle cx="60" cy="20" r="6" fill="#18c132"/></svg><svg height="260.52" viewBox="0 0 50 26.052" width="500" x="35" xmlns="http://www.w3.org/2000/svg" xmlns:xlink="http://www.w3.org/1999/xlink" y="70"><style>@keyframes j{0%{transform:translateX(-50px)}.5%{transform:translateX(-100px)}11.5%{transform:translateX(-150px)}22.6%{transform:translateX(-200px)}33.6%{transform:translateX(-250px)}44.7%{transform:translateX(-300px)}55.7%{transform:translateX(-350px)}66.7%{transform:translateX(-400px)}77.8%{transform:translateX(-450px)}88.8%{transform:translateX(-500px)}99.9%{transform:translateX(-600px)}to{transform:translateX(-650px)}}.a{fill:#282d35}.f,.g{fill:#d290e4;white-space:pre}.g{fill:#b9c0cb}</style><g font-family="Monaco,Consolas,Menlo,'Bitstream Vera Sans Mono','Powerline Symbols',monospace" font-size="1.67"><defs><symbol id="1"><text x="1.002" y="1.67" class="f">-</text><text x="5.01" y="1.67" class="g">please</text><text x="12.024" y="1.67" class="g">wait...</text></symbol><symbol id="2"><text x="1.002" y="1.67" class="f">\</text><text x="5.01" y="1.67" class="g">please</text><text x="12.024" y="1.67" class="g">wait...</text></symbol><symbol id="3"><text x="1.002" y="1.67" class="f">|</text><text x="5.01" y="1.67" class="g">please</text><text x="12.024" y="1.67" class="g">wait...</text></symbol><symbol id="4"><text x="1.002" y="1.67" class="f">/</text><text x="5.01" y="1.67" class="g">please</text><text x="12.024" y="1.67" class="g">wait...</text></symbol><symbol id="5"><text y="1.67" style="white-space:pre" fill="#a8cc8c">✔</text><text x="2.004" y="1.67" class="g">done!</text></symbol><symbol id="a"><path fill="transparent" d="M0 0h50v13H0z"/></symbol></defs><path class="a" d="M0 0h50v26.052H0z"/><g style="animation-duration:1.088169s;animation-iteration-count:infinite;animation-name:j;animation-timing-function:steps(1,end)"><svg width="700"><svg><use xlink:href="#a"/><text y="1.67" style="white-space:pre" fill="#a8cc8c" font-weight="700">shreyas@shreyas-MacBookPro</text><text x="26.052" y="1.67" class="g">:</text><text x="27.054" y="1.67" style="white-space:pre" fill="#71bef2" font-weight="700">~/Desktop/spinners</text><text x="45.09" y="1.67" class="g">$</text><text x="47.094" y="1.67" class="g">pri</text><text y="3.841" class="g">ntf</text><text x="4.008" y="3.841" class="g">&apos;\033[2J&apos;</text><text x="14.028" y="3.841" class="g">&amp;&amp;</text><text x="17.034" y="3.841" class="g">./main</text><text x="24.048" y="3.841" class="g">&amp;&amp;</text><text x="27.054" y="3.841" class="g">exit</text></svg><svg x="50"><use xlink:href="#a"/></svg><svg x="100"><use xlink:href="#a"/><use xlink:href="#1" y="4.342"/></svg><svg x="150"><use xlink:href="#a"/><use xlink:href="#2" y="4.342"/></svg><svg x="200"><use xlink:href="#a"/><use xlink:href="#3" y="4.342"/></svg><svg x="250"><use xlink:href="#a"/><use xlink:href="#4" y="4.342"/></svg><svg x="300"><use xlink:href="#a"/><use xlink:href="#1" y="4.342"/></svg><svg x="350"><use xlink:href="#a"/><use xlink:href="#2" y="4.342"/></svg><svg x="400"><use xlink:href="#a"/><use xlink:href="#3" y="4.342"/></svg><svg x="450"><use xlink:href="#a"/><use xlink:href="#4" y="4.342"/></svg><svg x="500"><use xlink:href="#a"/><use xlink:href="#1" y="4.342"/></svg><svg x="550"><use xlink:href="#a"/><use xlink:href="#1" y="4.342"/></svg><svg x="600"><use xlink:href="#a"/><use xlink:href="#1" y="4.342"/><use xlink:href="#5" y="6.513"/></svg><svg x="650"><use xlink:href="#a"/><use xlink:href="#1" y="4.342"/><use xlink:href="#5" y="6.513"/><text y="12.525" class="g">exit</text></svg></svg></g></g></svg></svg>